<mxfile host="app.diagrams.net" modified="2022-11-10T15:48:17.980Z" agent="5.0 (Windows NT 10.0; Win64; x64) AppleWebKit/537.36 (KHTML, like Gecko) Chrome/107.0.0.0 Safari/537.36" etag="CjcWvCwMlLXCSMLUCxbY" version="20.5.3" type="github">
  <diagram id="kiV2s5ONkKKbXkWyNekI" name="StrÃ¡nka-1">
    <mxGraphModel dx="1209" dy="1843" grid="1" gridSize="10" guides="1" tooltips="1" connect="1" arrows="1" fold="1" page="1" pageScale="1" pageWidth="827" pageHeight="1169" math="0" shadow="0">
      <root>
        <mxCell id="0" />
        <mxCell id="1" parent="0" />
        <mxCell id="BswMOae0kCLnzjpSVGE6-1" value="" style="ellipse;whiteSpace=wrap;html=1;aspect=fixed;" parent="1" vertex="1">
          <mxGeometry x="210" y="-40" width="80" height="80" as="geometry" />
        </mxCell>
        <mxCell id="BswMOae0kCLnzjpSVGE6-2" value="" style="endArrow=none;html=1;rounded=0;entryX=0;entryY=0.5;entryDx=0;entryDy=0;exitX=1;exitY=0.5;exitDx=0;exitDy=0;" parent="1" source="BswMOae0kCLnzjpSVGE6-1" target="BswMOae0kCLnzjpSVGE6-1" edge="1">
          <mxGeometry width="50" height="50" relative="1" as="geometry">
            <mxPoint x="510" y="220" as="sourcePoint" />
            <mxPoint x="560" y="170" as="targetPoint" />
          </mxGeometry>
        </mxCell>
        <mxCell id="BswMOae0kCLnzjpSVGE6-3" value="" style="endArrow=none;html=1;rounded=0;exitX=0.5;exitY=1;exitDx=0;exitDy=0;" parent="1" source="BswMOae0kCLnzjpSVGE6-1" edge="1">
          <mxGeometry width="50" height="50" relative="1" as="geometry">
            <mxPoint x="510" y="220" as="sourcePoint" />
            <mxPoint x="250" as="targetPoint" />
          </mxGeometry>
        </mxCell>
        <mxCell id="BswMOae0kCLnzjpSVGE6-4" value="60" style="text;html=1;strokeColor=none;fillColor=none;align=center;verticalAlign=middle;whiteSpace=wrap;rounded=0;" parent="1" vertex="1">
          <mxGeometry x="220" width="30" height="30" as="geometry" />
        </mxCell>
        <mxCell id="BswMOae0kCLnzjpSVGE6-5" value="60" style="text;html=1;strokeColor=none;fillColor=none;align=center;verticalAlign=middle;whiteSpace=wrap;rounded=0;" parent="1" vertex="1">
          <mxGeometry x="250" y="1" width="30" height="30" as="geometry" />
        </mxCell>
        <mxCell id="BswMOae0kCLnzjpSVGE6-6" value="" style="ellipse;whiteSpace=wrap;html=1;aspect=fixed;" parent="1" vertex="1">
          <mxGeometry x="30" y="70" width="80" height="80" as="geometry" />
        </mxCell>
        <mxCell id="BswMOae0kCLnzjpSVGE6-7" value="" style="endArrow=none;html=1;rounded=0;entryX=0;entryY=0.5;entryDx=0;entryDy=0;exitX=1;exitY=0.5;exitDx=0;exitDy=0;" parent="1" source="BswMOae0kCLnzjpSVGE6-6" target="BswMOae0kCLnzjpSVGE6-6" edge="1">
          <mxGeometry width="50" height="50" relative="1" as="geometry">
            <mxPoint x="330" y="330" as="sourcePoint" />
            <mxPoint x="380" y="280" as="targetPoint" />
          </mxGeometry>
        </mxCell>
        <mxCell id="BswMOae0kCLnzjpSVGE6-8" value="" style="endArrow=none;html=1;rounded=0;exitX=0.5;exitY=1;exitDx=0;exitDy=0;" parent="1" source="BswMOae0kCLnzjpSVGE6-6" edge="1">
          <mxGeometry width="50" height="50" relative="1" as="geometry">
            <mxPoint x="330" y="330" as="sourcePoint" />
            <mxPoint x="70" y="110" as="targetPoint" />
          </mxGeometry>
        </mxCell>
        <mxCell id="BswMOae0kCLnzjpSVGE6-9" value="0" style="text;html=1;strokeColor=none;fillColor=none;align=center;verticalAlign=middle;whiteSpace=wrap;rounded=0;" parent="1" vertex="1">
          <mxGeometry x="40" y="110" width="30" height="30" as="geometry" />
        </mxCell>
        <mxCell id="BswMOae0kCLnzjpSVGE6-10" value="0" style="text;html=1;strokeColor=none;fillColor=none;align=center;verticalAlign=middle;whiteSpace=wrap;rounded=0;" parent="1" vertex="1">
          <mxGeometry x="70" y="111" width="30" height="30" as="geometry" />
        </mxCell>
        <mxCell id="BswMOae0kCLnzjpSVGE6-11" value="" style="endArrow=classic;html=1;rounded=0;entryX=0.025;entryY=0.725;entryDx=0;entryDy=0;entryPerimeter=0;fillColor=#f8cecc;strokeColor=#b85450;" parent="1" source="BswMOae0kCLnzjpSVGE6-6" target="BswMOae0kCLnzjpSVGE6-1" edge="1">
          <mxGeometry width="50" height="50" relative="1" as="geometry">
            <mxPoint x="310" y="150" as="sourcePoint" />
            <mxPoint x="360" y="100" as="targetPoint" />
          </mxGeometry>
        </mxCell>
        <mxCell id="BswMOae0kCLnzjpSVGE6-12" value="A" style="text;html=1;strokeColor=none;fillColor=none;align=center;verticalAlign=middle;whiteSpace=wrap;rounded=0;" parent="1" vertex="1">
          <mxGeometry x="120" y="30" width="60" height="30" as="geometry" />
        </mxCell>
        <mxCell id="BswMOae0kCLnzjpSVGE6-13" value="60" style="text;html=1;strokeColor=none;fillColor=none;align=center;verticalAlign=middle;whiteSpace=wrap;rounded=0;" parent="1" vertex="1">
          <mxGeometry x="140" y="60" width="60" height="30" as="geometry" />
        </mxCell>
        <mxCell id="BswMOae0kCLnzjpSVGE6-14" value="" style="endArrow=classic;html=1;rounded=0;entryX=0;entryY=0;entryDx=0;entryDy=0;exitX=0.8;exitY=0.063;exitDx=0;exitDy=0;exitPerimeter=0;" parent="1" source="BswMOae0kCLnzjpSVGE6-1" target="BswMOae0kCLnzjpSVGE6-82" edge="1">
          <mxGeometry width="50" height="50" relative="1" as="geometry">
            <mxPoint x="280.0001151887404" y="-19.749652094113117" as="sourcePoint" />
            <mxPoint x="319" y="-160" as="targetPoint" />
          </mxGeometry>
        </mxCell>
        <mxCell id="BswMOae0kCLnzjpSVGE6-15" value="B" style="text;html=1;strokeColor=none;fillColor=none;align=center;verticalAlign=middle;whiteSpace=wrap;rounded=0;" parent="1" vertex="1">
          <mxGeometry x="971" y="110" width="60" height="30" as="geometry" />
        </mxCell>
        <mxCell id="BswMOae0kCLnzjpSVGE6-16" value="80" style="text;html=1;strokeColor=none;fillColor=none;align=center;verticalAlign=middle;whiteSpace=wrap;rounded=0;" parent="1" vertex="1">
          <mxGeometry x="966" y="140" width="60" height="30" as="geometry" />
        </mxCell>
        <mxCell id="BswMOae0kCLnzjpSVGE6-17" value="" style="endArrow=classic;html=1;rounded=0;exitX=1.038;exitY=0.675;exitDx=0;exitDy=0;exitPerimeter=0;entryX=0.391;entryY=-0.055;entryDx=0;entryDy=0;entryPerimeter=0;" parent="1" source="BswMOae0kCLnzjpSVGE6-1" target="BswMOae0kCLnzjpSVGE6-66" edge="1">
          <mxGeometry width="50" height="50" relative="1" as="geometry">
            <mxPoint x="290.00011518874044" y="-9.749652094113117" as="sourcePoint" />
            <mxPoint x="390" y="20" as="targetPoint" />
          </mxGeometry>
        </mxCell>
        <mxCell id="BswMOae0kCLnzjpSVGE6-18" value="C" style="text;html=1;strokeColor=none;fillColor=none;align=center;verticalAlign=middle;whiteSpace=wrap;rounded=0;" parent="1" vertex="1">
          <mxGeometry x="730" y="130" width="60" height="30" as="geometry" />
        </mxCell>
        <mxCell id="BswMOae0kCLnzjpSVGE6-19" value="150" style="text;html=1;strokeColor=none;fillColor=none;align=center;verticalAlign=middle;whiteSpace=wrap;rounded=0;" parent="1" vertex="1">
          <mxGeometry x="730" y="161" width="60" height="30" as="geometry" />
        </mxCell>
        <mxCell id="BswMOae0kCLnzjpSVGE6-20" value="" style="ellipse;whiteSpace=wrap;html=1;aspect=fixed;" parent="1" vertex="1">
          <mxGeometry x="334" y="120" width="80" height="80" as="geometry" />
        </mxCell>
        <mxCell id="BswMOae0kCLnzjpSVGE6-21" value="" style="endArrow=none;html=1;rounded=0;entryX=0;entryY=0.5;entryDx=0;entryDy=0;exitX=1;exitY=0.5;exitDx=0;exitDy=0;" parent="1" source="BswMOae0kCLnzjpSVGE6-20" target="BswMOae0kCLnzjpSVGE6-20" edge="1">
          <mxGeometry width="50" height="50" relative="1" as="geometry">
            <mxPoint x="634" y="380" as="sourcePoint" />
            <mxPoint x="684" y="330" as="targetPoint" />
          </mxGeometry>
        </mxCell>
        <mxCell id="BswMOae0kCLnzjpSVGE6-22" value="" style="endArrow=none;html=1;rounded=0;exitX=0.5;exitY=1;exitDx=0;exitDy=0;" parent="1" source="BswMOae0kCLnzjpSVGE6-20" edge="1">
          <mxGeometry width="50" height="50" relative="1" as="geometry">
            <mxPoint x="634" y="380" as="sourcePoint" />
            <mxPoint x="374" y="160" as="targetPoint" />
          </mxGeometry>
        </mxCell>
        <mxCell id="BswMOae0kCLnzjpSVGE6-23" value="75" style="text;html=1;strokeColor=none;fillColor=none;align=center;verticalAlign=middle;whiteSpace=wrap;rounded=0;" parent="1" vertex="1">
          <mxGeometry x="344" y="160" width="30" height="30" as="geometry" />
        </mxCell>
        <mxCell id="BswMOae0kCLnzjpSVGE6-24" value="75" style="text;html=1;strokeColor=none;fillColor=none;align=center;verticalAlign=middle;whiteSpace=wrap;rounded=0;" parent="1" vertex="1">
          <mxGeometry x="374" y="161" width="30" height="30" as="geometry" />
        </mxCell>
        <mxCell id="BswMOae0kCLnzjpSVGE6-25" value="" style="endArrow=classic;html=1;rounded=0;entryX=0;entryY=0;entryDx=0;entryDy=0;exitX=0.838;exitY=0.95;exitDx=0;exitDy=0;exitPerimeter=0;fillColor=#f8cecc;strokeColor=#b85450;" parent="1" source="BswMOae0kCLnzjpSVGE6-1" target="BswMOae0kCLnzjpSVGE6-20" edge="1">
          <mxGeometry width="50" height="50" relative="1" as="geometry">
            <mxPoint x="290.00011518874044" y="-9.749652094113117" as="sourcePoint" />
            <mxPoint x="384" y="-90" as="targetPoint" />
          </mxGeometry>
        </mxCell>
        <mxCell id="BswMOae0kCLnzjpSVGE6-26" value="D" style="text;html=1;strokeColor=none;fillColor=none;align=center;verticalAlign=middle;whiteSpace=wrap;rounded=0;" parent="1" vertex="1">
          <mxGeometry x="290" y="60" width="60" height="30" as="geometry" />
        </mxCell>
        <mxCell id="BswMOae0kCLnzjpSVGE6-27" value="15" style="text;html=1;strokeColor=none;fillColor=none;align=center;verticalAlign=middle;whiteSpace=wrap;rounded=0;" parent="1" vertex="1">
          <mxGeometry x="265" y="80" width="60" height="30" as="geometry" />
        </mxCell>
        <mxCell id="BswMOae0kCLnzjpSVGE6-28" value="" style="ellipse;whiteSpace=wrap;html=1;aspect=fixed;" parent="1" vertex="1">
          <mxGeometry x="255" y="260" width="80" height="80" as="geometry" />
        </mxCell>
        <mxCell id="BswMOae0kCLnzjpSVGE6-29" value="" style="endArrow=none;html=1;rounded=0;entryX=0;entryY=0.5;entryDx=0;entryDy=0;exitX=1;exitY=0.5;exitDx=0;exitDy=0;" parent="1" source="BswMOae0kCLnzjpSVGE6-28" target="BswMOae0kCLnzjpSVGE6-28" edge="1">
          <mxGeometry width="50" height="50" relative="1" as="geometry">
            <mxPoint x="555" y="520" as="sourcePoint" />
            <mxPoint x="605" y="470" as="targetPoint" />
          </mxGeometry>
        </mxCell>
        <mxCell id="BswMOae0kCLnzjpSVGE6-30" value="" style="endArrow=none;html=1;rounded=0;exitX=0.5;exitY=1;exitDx=0;exitDy=0;" parent="1" source="BswMOae0kCLnzjpSVGE6-28" edge="1">
          <mxGeometry width="50" height="50" relative="1" as="geometry">
            <mxPoint x="555" y="520" as="sourcePoint" />
            <mxPoint x="295" y="300" as="targetPoint" />
          </mxGeometry>
        </mxCell>
        <mxCell id="BswMOae0kCLnzjpSVGE6-31" value="85" style="text;html=1;strokeColor=none;fillColor=none;align=center;verticalAlign=middle;whiteSpace=wrap;rounded=0;" parent="1" vertex="1">
          <mxGeometry x="265" y="300" width="30" height="30" as="geometry" />
        </mxCell>
        <mxCell id="BswMOae0kCLnzjpSVGE6-32" value="85" style="text;html=1;strokeColor=none;fillColor=none;align=center;verticalAlign=middle;whiteSpace=wrap;rounded=0;" parent="1" vertex="1">
          <mxGeometry x="295" y="301" width="30" height="30" as="geometry" />
        </mxCell>
        <mxCell id="BswMOae0kCLnzjpSVGE6-33" value="" style="endArrow=classic;html=1;rounded=0;entryX=0.288;entryY=0.063;entryDx=0;entryDy=0;entryPerimeter=0;exitX=0.223;exitY=1.016;exitDx=0;exitDy=0;exitPerimeter=0;fillColor=#f8cecc;strokeColor=#b85450;" parent="1" source="BswMOae0kCLnzjpSVGE6-20" target="BswMOae0kCLnzjpSVGE6-28" edge="1">
          <mxGeometry width="50" height="50" relative="1" as="geometry">
            <mxPoint x="250" y="40" as="sourcePoint" />
            <mxPoint x="355.71572875253787" y="141.71572875253787" as="targetPoint" />
          </mxGeometry>
        </mxCell>
        <mxCell id="BswMOae0kCLnzjpSVGE6-34" value="E" style="text;html=1;strokeColor=none;fillColor=none;align=center;verticalAlign=middle;whiteSpace=wrap;rounded=0;" parent="1" vertex="1">
          <mxGeometry x="264" y="210" width="60" height="30" as="geometry" />
        </mxCell>
        <mxCell id="BswMOae0kCLnzjpSVGE6-35" value="10" style="text;html=1;strokeColor=none;fillColor=none;align=center;verticalAlign=middle;whiteSpace=wrap;rounded=0;" parent="1" vertex="1">
          <mxGeometry x="314" y="230" width="60" height="30" as="geometry" />
        </mxCell>
        <mxCell id="BswMOae0kCLnzjpSVGE6-36" value="" style="ellipse;whiteSpace=wrap;html=1;aspect=fixed;" parent="1" vertex="1">
          <mxGeometry x="414" y="321" width="80" height="80" as="geometry" />
        </mxCell>
        <mxCell id="BswMOae0kCLnzjpSVGE6-37" value="" style="endArrow=none;html=1;rounded=0;entryX=0;entryY=0.5;entryDx=0;entryDy=0;exitX=1;exitY=0.5;exitDx=0;exitDy=0;" parent="1" source="BswMOae0kCLnzjpSVGE6-36" target="BswMOae0kCLnzjpSVGE6-36" edge="1">
          <mxGeometry width="50" height="50" relative="1" as="geometry">
            <mxPoint x="714" y="581" as="sourcePoint" />
            <mxPoint x="764" y="531" as="targetPoint" />
          </mxGeometry>
        </mxCell>
        <mxCell id="BswMOae0kCLnzjpSVGE6-38" value="" style="endArrow=none;html=1;rounded=0;exitX=0.5;exitY=1;exitDx=0;exitDy=0;" parent="1" source="BswMOae0kCLnzjpSVGE6-36" edge="1">
          <mxGeometry width="50" height="50" relative="1" as="geometry">
            <mxPoint x="714" y="581" as="sourcePoint" />
            <mxPoint x="454" y="361" as="targetPoint" />
          </mxGeometry>
        </mxCell>
        <mxCell id="BswMOae0kCLnzjpSVGE6-39" value="90" style="text;html=1;strokeColor=none;fillColor=none;align=center;verticalAlign=middle;whiteSpace=wrap;rounded=0;" parent="1" vertex="1">
          <mxGeometry x="424" y="361" width="30" height="30" as="geometry" />
        </mxCell>
        <mxCell id="BswMOae0kCLnzjpSVGE6-40" value="90" style="text;html=1;strokeColor=none;fillColor=none;align=center;verticalAlign=middle;whiteSpace=wrap;rounded=0;" parent="1" vertex="1">
          <mxGeometry x="454" y="362" width="30" height="30" as="geometry" />
        </mxCell>
        <mxCell id="BswMOae0kCLnzjpSVGE6-41" value="" style="endArrow=classic;html=1;rounded=0;fillColor=#f8cecc;strokeColor=#b85450;" parent="1" target="BswMOae0kCLnzjpSVGE6-36" edge="1">
          <mxGeometry width="50" height="50" relative="1" as="geometry">
            <mxPoint x="331.5701151887404" y="320.0003479058869" as="sourcePoint" />
            <mxPoint x="440" y="249.75" as="targetPoint" />
          </mxGeometry>
        </mxCell>
        <mxCell id="BswMOae0kCLnzjpSVGE6-42" value="G" style="text;html=1;strokeColor=none;fillColor=none;align=center;verticalAlign=middle;whiteSpace=wrap;rounded=0;" parent="1" vertex="1">
          <mxGeometry x="360" y="310" width="44" height="30" as="geometry" />
        </mxCell>
        <mxCell id="BswMOae0kCLnzjpSVGE6-43" value="5" style="text;html=1;strokeColor=none;fillColor=none;align=center;verticalAlign=middle;whiteSpace=wrap;rounded=0;" parent="1" vertex="1">
          <mxGeometry x="344" y="332" width="60" height="30" as="geometry" />
        </mxCell>
        <mxCell id="BswMOae0kCLnzjpSVGE6-44" value="" style="endArrow=classic;html=1;rounded=0;entryX=0.377;entryY=0.016;entryDx=0;entryDy=0;entryPerimeter=0;exitX=0.973;exitY=0.195;exitDx=0;exitDy=0;exitPerimeter=0;" parent="1" source="BswMOae0kCLnzjpSVGE6-28" target="BswMOae0kCLnzjpSVGE6-58" edge="1">
          <mxGeometry width="50" height="50" relative="1" as="geometry">
            <mxPoint x="310" y="450" as="sourcePoint" />
            <mxPoint x="360" y="400" as="targetPoint" />
          </mxGeometry>
        </mxCell>
        <mxCell id="BswMOae0kCLnzjpSVGE6-45" value="H" style="text;html=1;strokeColor=none;fillColor=none;align=center;verticalAlign=middle;whiteSpace=wrap;rounded=0;" parent="1" vertex="1">
          <mxGeometry x="540" y="260" width="60" height="30" as="geometry" />
        </mxCell>
        <mxCell id="BswMOae0kCLnzjpSVGE6-46" value="10" style="text;html=1;strokeColor=none;fillColor=none;align=center;verticalAlign=middle;whiteSpace=wrap;rounded=0;" parent="1" vertex="1">
          <mxGeometry x="540" y="291" width="60" height="30" as="geometry" />
        </mxCell>
        <mxCell id="BswMOae0kCLnzjpSVGE6-47" value="" style="endArrow=classic;html=1;rounded=0;entryX=0.246;entryY=0.977;entryDx=0;entryDy=0;entryPerimeter=0;exitX=0.5;exitY=1;exitDx=0;exitDy=0;" parent="1" source="BswMOae0kCLnzjpSVGE6-28" target="BswMOae0kCLnzjpSVGE6-66" edge="1">
          <mxGeometry width="50" height="50" relative="1" as="geometry">
            <mxPoint x="370" y="480" as="sourcePoint" />
            <mxPoint x="470.0400000000004" y="660" as="targetPoint" />
            <Array as="points">
              <mxPoint x="630" y="580" />
            </Array>
          </mxGeometry>
        </mxCell>
        <mxCell id="BswMOae0kCLnzjpSVGE6-48" value="I" style="text;html=1;strokeColor=none;fillColor=none;align=center;verticalAlign=middle;whiteSpace=wrap;rounded=0;" parent="1" vertex="1">
          <mxGeometry x="600" y="530" width="60" height="30" as="geometry" />
        </mxCell>
        <mxCell id="BswMOae0kCLnzjpSVGE6-49" value="20" style="text;html=1;strokeColor=none;fillColor=none;align=center;verticalAlign=middle;whiteSpace=wrap;rounded=0;" parent="1" vertex="1">
          <mxGeometry x="589" y="585" width="60" height="30" as="geometry" />
        </mxCell>
        <mxCell id="BswMOae0kCLnzjpSVGE6-50" value="" style="ellipse;whiteSpace=wrap;html=1;aspect=fixed;" parent="1" vertex="1">
          <mxGeometry x="680" y="321" width="80" height="80" as="geometry" />
        </mxCell>
        <mxCell id="BswMOae0kCLnzjpSVGE6-51" value="" style="endArrow=none;html=1;rounded=0;entryX=0;entryY=0.5;entryDx=0;entryDy=0;exitX=1;exitY=0.5;exitDx=0;exitDy=0;" parent="1" source="BswMOae0kCLnzjpSVGE6-50" target="BswMOae0kCLnzjpSVGE6-50" edge="1">
          <mxGeometry width="50" height="50" relative="1" as="geometry">
            <mxPoint x="980" y="581" as="sourcePoint" />
            <mxPoint x="1030" y="531" as="targetPoint" />
          </mxGeometry>
        </mxCell>
        <mxCell id="BswMOae0kCLnzjpSVGE6-52" value="" style="endArrow=none;html=1;rounded=0;exitX=0.5;exitY=1;exitDx=0;exitDy=0;" parent="1" source="BswMOae0kCLnzjpSVGE6-50" edge="1">
          <mxGeometry width="50" height="50" relative="1" as="geometry">
            <mxPoint x="980" y="581" as="sourcePoint" />
            <mxPoint x="720" y="361" as="targetPoint" />
          </mxGeometry>
        </mxCell>
        <mxCell id="BswMOae0kCLnzjpSVGE6-53" value="150" style="text;html=1;strokeColor=none;fillColor=none;align=center;verticalAlign=middle;whiteSpace=wrap;rounded=0;" parent="1" vertex="1">
          <mxGeometry x="690" y="361" width="30" height="30" as="geometry" />
        </mxCell>
        <mxCell id="BswMOae0kCLnzjpSVGE6-54" value="150" style="text;html=1;strokeColor=none;fillColor=none;align=center;verticalAlign=middle;whiteSpace=wrap;rounded=0;" parent="1" vertex="1">
          <mxGeometry x="720" y="362" width="30" height="30" as="geometry" />
        </mxCell>
        <mxCell id="BswMOae0kCLnzjpSVGE6-55" value="" style="endArrow=classic;html=1;rounded=0;entryX=0;entryY=0.5;entryDx=0;entryDy=0;fillColor=#f8cecc;strokeColor=#b85450;" parent="1" target="BswMOae0kCLnzjpSVGE6-50" edge="1">
          <mxGeometry width="50" height="50" relative="1" as="geometry">
            <mxPoint x="494" y="362" as="sourcePoint" />
            <mxPoint x="544" y="312" as="targetPoint" />
          </mxGeometry>
        </mxCell>
        <mxCell id="BswMOae0kCLnzjpSVGE6-56" value="J" style="text;html=1;strokeColor=none;fillColor=none;align=center;verticalAlign=middle;whiteSpace=wrap;rounded=0;" parent="1" vertex="1">
          <mxGeometry x="549" y="332" width="60" height="30" as="geometry" />
        </mxCell>
        <mxCell id="BswMOae0kCLnzjpSVGE6-57" value="60" style="text;html=1;strokeColor=none;fillColor=none;align=center;verticalAlign=middle;whiteSpace=wrap;rounded=0;" parent="1" vertex="1">
          <mxGeometry x="549" y="360" width="60" height="30" as="geometry" />
        </mxCell>
        <mxCell id="BswMOae0kCLnzjpSVGE6-58" value="" style="ellipse;whiteSpace=wrap;html=1;aspect=fixed;" parent="1" vertex="1">
          <mxGeometry x="946" y="320" width="80" height="80" as="geometry" />
        </mxCell>
        <mxCell id="BswMOae0kCLnzjpSVGE6-59" value="" style="endArrow=none;html=1;rounded=0;entryX=0;entryY=0.5;entryDx=0;entryDy=0;exitX=1;exitY=0.5;exitDx=0;exitDy=0;" parent="1" source="BswMOae0kCLnzjpSVGE6-58" target="BswMOae0kCLnzjpSVGE6-58" edge="1">
          <mxGeometry width="50" height="50" relative="1" as="geometry">
            <mxPoint x="1246" y="580" as="sourcePoint" />
            <mxPoint x="1296" y="530" as="targetPoint" />
          </mxGeometry>
        </mxCell>
        <mxCell id="BswMOae0kCLnzjpSVGE6-60" value="" style="endArrow=none;html=1;rounded=0;exitX=0.5;exitY=1;exitDx=0;exitDy=0;" parent="1" source="BswMOae0kCLnzjpSVGE6-58" edge="1">
          <mxGeometry width="50" height="50" relative="1" as="geometry">
            <mxPoint x="1246" y="580" as="sourcePoint" />
            <mxPoint x="986" y="360" as="targetPoint" />
          </mxGeometry>
        </mxCell>
        <mxCell id="BswMOae0kCLnzjpSVGE6-61" value="165" style="text;html=1;strokeColor=none;fillColor=none;align=center;verticalAlign=middle;whiteSpace=wrap;rounded=0;" parent="1" vertex="1">
          <mxGeometry x="956" y="360" width="30" height="30" as="geometry" />
        </mxCell>
        <mxCell id="BswMOae0kCLnzjpSVGE6-62" value="165" style="text;html=1;strokeColor=none;fillColor=none;align=center;verticalAlign=middle;whiteSpace=wrap;rounded=0;" parent="1" vertex="1">
          <mxGeometry x="986" y="361" width="30" height="30" as="geometry" />
        </mxCell>
        <mxCell id="BswMOae0kCLnzjpSVGE6-63" value="" style="endArrow=classic;html=1;rounded=0;entryX=0;entryY=0.5;entryDx=0;entryDy=0;fillColor=#f8cecc;strokeColor=#b85450;" parent="1" target="BswMOae0kCLnzjpSVGE6-58" edge="1">
          <mxGeometry width="50" height="50" relative="1" as="geometry">
            <mxPoint x="760" y="361" as="sourcePoint" />
            <mxPoint x="810" y="311" as="targetPoint" />
          </mxGeometry>
        </mxCell>
        <mxCell id="BswMOae0kCLnzjpSVGE6-64" value="K" style="text;html=1;strokeColor=none;fillColor=none;align=center;verticalAlign=middle;whiteSpace=wrap;rounded=0;" parent="1" vertex="1">
          <mxGeometry x="815" y="331" width="60" height="30" as="geometry" />
        </mxCell>
        <mxCell id="BswMOae0kCLnzjpSVGE6-65" value="15" style="text;html=1;strokeColor=none;fillColor=none;align=center;verticalAlign=middle;whiteSpace=wrap;rounded=0;" parent="1" vertex="1">
          <mxGeometry x="815" y="359" width="60" height="30" as="geometry" />
        </mxCell>
        <mxCell id="BswMOae0kCLnzjpSVGE6-66" value="" style="ellipse;whiteSpace=wrap;html=1;aspect=fixed;" parent="1" vertex="1">
          <mxGeometry x="1212" y="320" width="80" height="80" as="geometry" />
        </mxCell>
        <mxCell id="BswMOae0kCLnzjpSVGE6-67" value="" style="endArrow=none;html=1;rounded=0;entryX=0;entryY=0.5;entryDx=0;entryDy=0;exitX=1;exitY=0.5;exitDx=0;exitDy=0;" parent="1" source="BswMOae0kCLnzjpSVGE6-66" target="BswMOae0kCLnzjpSVGE6-66" edge="1">
          <mxGeometry width="50" height="50" relative="1" as="geometry">
            <mxPoint x="1512" y="580" as="sourcePoint" />
            <mxPoint x="1562" y="530" as="targetPoint" />
          </mxGeometry>
        </mxCell>
        <mxCell id="BswMOae0kCLnzjpSVGE6-68" value="" style="endArrow=none;html=1;rounded=0;exitX=0.5;exitY=1;exitDx=0;exitDy=0;" parent="1" source="BswMOae0kCLnzjpSVGE6-66" edge="1">
          <mxGeometry width="50" height="50" relative="1" as="geometry">
            <mxPoint x="1512" y="580" as="sourcePoint" />
            <mxPoint x="1252" y="360" as="targetPoint" />
          </mxGeometry>
        </mxCell>
        <mxCell id="BswMOae0kCLnzjpSVGE6-69" value="210" style="text;html=1;strokeColor=none;fillColor=none;align=center;verticalAlign=middle;whiteSpace=wrap;rounded=0;" parent="1" vertex="1">
          <mxGeometry x="1222" y="360" width="30" height="30" as="geometry" />
        </mxCell>
        <mxCell id="BswMOae0kCLnzjpSVGE6-70" value="210" style="text;html=1;strokeColor=none;fillColor=none;align=center;verticalAlign=middle;whiteSpace=wrap;rounded=0;" parent="1" vertex="1">
          <mxGeometry x="1252" y="361" width="30" height="30" as="geometry" />
        </mxCell>
        <mxCell id="BswMOae0kCLnzjpSVGE6-71" value="" style="endArrow=classic;html=1;rounded=0;entryX=0;entryY=0.5;entryDx=0;entryDy=0;fillColor=#f8cecc;strokeColor=#b85450;" parent="1" target="BswMOae0kCLnzjpSVGE6-66" edge="1">
          <mxGeometry width="50" height="50" relative="1" as="geometry">
            <mxPoint x="1026" y="361" as="sourcePoint" />
            <mxPoint x="1076" y="311" as="targetPoint" />
          </mxGeometry>
        </mxCell>
        <mxCell id="BswMOae0kCLnzjpSVGE6-72" value="L" style="text;html=1;strokeColor=none;fillColor=none;align=center;verticalAlign=middle;whiteSpace=wrap;rounded=0;" parent="1" vertex="1">
          <mxGeometry x="1081" y="331" width="60" height="30" as="geometry" />
        </mxCell>
        <mxCell id="BswMOae0kCLnzjpSVGE6-73" value="40" style="text;html=1;strokeColor=none;fillColor=none;align=center;verticalAlign=middle;whiteSpace=wrap;rounded=0;" parent="1" vertex="1">
          <mxGeometry x="1081" y="359" width="60" height="30" as="geometry" />
        </mxCell>
        <mxCell id="BswMOae0kCLnzjpSVGE6-74" value="" style="ellipse;whiteSpace=wrap;html=1;aspect=fixed;" parent="1" vertex="1">
          <mxGeometry x="1478" y="320" width="80" height="80" as="geometry" />
        </mxCell>
        <mxCell id="BswMOae0kCLnzjpSVGE6-75" value="" style="endArrow=none;html=1;rounded=0;entryX=0;entryY=0.5;entryDx=0;entryDy=0;exitX=1;exitY=0.5;exitDx=0;exitDy=0;" parent="1" source="BswMOae0kCLnzjpSVGE6-74" target="BswMOae0kCLnzjpSVGE6-74" edge="1">
          <mxGeometry width="50" height="50" relative="1" as="geometry">
            <mxPoint x="1778" y="580" as="sourcePoint" />
            <mxPoint x="1828" y="530" as="targetPoint" />
          </mxGeometry>
        </mxCell>
        <mxCell id="BswMOae0kCLnzjpSVGE6-76" value="" style="endArrow=none;html=1;rounded=0;exitX=0.5;exitY=1;exitDx=0;exitDy=0;" parent="1" source="BswMOae0kCLnzjpSVGE6-74" edge="1">
          <mxGeometry width="50" height="50" relative="1" as="geometry">
            <mxPoint x="1778" y="580" as="sourcePoint" />
            <mxPoint x="1518" y="360" as="targetPoint" />
          </mxGeometry>
        </mxCell>
        <mxCell id="BswMOae0kCLnzjpSVGE6-77" value="270" style="text;html=1;strokeColor=none;fillColor=none;align=center;verticalAlign=middle;whiteSpace=wrap;rounded=0;" parent="1" vertex="1">
          <mxGeometry x="1488" y="360" width="30" height="30" as="geometry" />
        </mxCell>
        <mxCell id="BswMOae0kCLnzjpSVGE6-78" value="270" style="text;html=1;strokeColor=none;fillColor=none;align=center;verticalAlign=middle;whiteSpace=wrap;rounded=0;" parent="1" vertex="1">
          <mxGeometry x="1518" y="361" width="30" height="30" as="geometry" />
        </mxCell>
        <mxCell id="BswMOae0kCLnzjpSVGE6-79" value="" style="endArrow=classic;html=1;rounded=0;entryX=0;entryY=0.5;entryDx=0;entryDy=0;fillColor=#f8cecc;strokeColor=#b85450;" parent="1" target="BswMOae0kCLnzjpSVGE6-74" edge="1">
          <mxGeometry width="50" height="50" relative="1" as="geometry">
            <mxPoint x="1292" y="361" as="sourcePoint" />
            <mxPoint x="1342" y="311" as="targetPoint" />
          </mxGeometry>
        </mxCell>
        <mxCell id="BswMOae0kCLnzjpSVGE6-80" value="M" style="text;html=1;strokeColor=none;fillColor=none;align=center;verticalAlign=middle;whiteSpace=wrap;rounded=0;" parent="1" vertex="1">
          <mxGeometry x="1347" y="331" width="60" height="30" as="geometry" />
        </mxCell>
        <mxCell id="BswMOae0kCLnzjpSVGE6-81" value="60" style="text;html=1;strokeColor=none;fillColor=none;align=center;verticalAlign=middle;whiteSpace=wrap;rounded=0;" parent="1" vertex="1">
          <mxGeometry x="1347" y="359" width="60" height="30" as="geometry" />
        </mxCell>
        <mxCell id="BswMOae0kCLnzjpSVGE6-82" value="" style="ellipse;whiteSpace=wrap;html=1;aspect=fixed;" parent="1" vertex="1">
          <mxGeometry x="1746" y="320" width="80" height="80" as="geometry" />
        </mxCell>
        <mxCell id="BswMOae0kCLnzjpSVGE6-83" value="" style="endArrow=none;html=1;rounded=0;entryX=0;entryY=0.5;entryDx=0;entryDy=0;exitX=1;exitY=0.5;exitDx=0;exitDy=0;" parent="1" source="BswMOae0kCLnzjpSVGE6-82" target="BswMOae0kCLnzjpSVGE6-82" edge="1">
          <mxGeometry width="50" height="50" relative="1" as="geometry">
            <mxPoint x="2046" y="580" as="sourcePoint" />
            <mxPoint x="2096" y="530" as="targetPoint" />
          </mxGeometry>
        </mxCell>
        <mxCell id="BswMOae0kCLnzjpSVGE6-84" value="" style="endArrow=none;html=1;rounded=0;exitX=0.5;exitY=1;exitDx=0;exitDy=0;" parent="1" source="BswMOae0kCLnzjpSVGE6-82" edge="1">
          <mxGeometry width="50" height="50" relative="1" as="geometry">
            <mxPoint x="2046" y="580" as="sourcePoint" />
            <mxPoint x="1786" y="360" as="targetPoint" />
          </mxGeometry>
        </mxCell>
        <mxCell id="BswMOae0kCLnzjpSVGE6-85" value="290" style="text;html=1;strokeColor=none;fillColor=none;align=center;verticalAlign=middle;whiteSpace=wrap;rounded=0;" parent="1" vertex="1">
          <mxGeometry x="1756" y="360" width="30" height="30" as="geometry" />
        </mxCell>
        <mxCell id="BswMOae0kCLnzjpSVGE6-86" value="290" style="text;html=1;strokeColor=none;fillColor=none;align=center;verticalAlign=middle;whiteSpace=wrap;rounded=0;" parent="1" vertex="1">
          <mxGeometry x="1786" y="361" width="30" height="30" as="geometry" />
        </mxCell>
        <mxCell id="BswMOae0kCLnzjpSVGE6-87" value="" style="endArrow=classic;html=1;rounded=0;entryX=0;entryY=0.5;entryDx=0;entryDy=0;fillColor=#f8cecc;strokeColor=#b85450;" parent="1" target="BswMOae0kCLnzjpSVGE6-82" edge="1">
          <mxGeometry width="50" height="50" relative="1" as="geometry">
            <mxPoint x="1560" y="361" as="sourcePoint" />
            <mxPoint x="1610" y="311" as="targetPoint" />
          </mxGeometry>
        </mxCell>
        <mxCell id="BswMOae0kCLnzjpSVGE6-88" value="N" style="text;html=1;strokeColor=none;fillColor=none;align=center;verticalAlign=middle;whiteSpace=wrap;rounded=0;" parent="1" vertex="1">
          <mxGeometry x="1615" y="331" width="60" height="30" as="geometry" />
        </mxCell>
        <mxCell id="BswMOae0kCLnzjpSVGE6-89" value="40" style="text;html=1;strokeColor=none;fillColor=none;align=center;verticalAlign=middle;whiteSpace=wrap;rounded=0;" parent="1" vertex="1">
          <mxGeometry x="1792" y="210" width="60" height="30" as="geometry" />
        </mxCell>
        <mxCell id="BswMOae0kCLnzjpSVGE6-90" value="" style="ellipse;whiteSpace=wrap;html=1;aspect=fixed;" parent="1" vertex="1">
          <mxGeometry x="1780" y="20" width="80" height="80" as="geometry" />
        </mxCell>
        <mxCell id="BswMOae0kCLnzjpSVGE6-91" value="" style="endArrow=none;html=1;rounded=0;entryX=0;entryY=0.5;entryDx=0;entryDy=0;exitX=1;exitY=0.5;exitDx=0;exitDy=0;" parent="1" source="BswMOae0kCLnzjpSVGE6-90" target="BswMOae0kCLnzjpSVGE6-90" edge="1">
          <mxGeometry width="50" height="50" relative="1" as="geometry">
            <mxPoint x="2080" y="280" as="sourcePoint" />
            <mxPoint x="2130" y="230" as="targetPoint" />
          </mxGeometry>
        </mxCell>
        <mxCell id="BswMOae0kCLnzjpSVGE6-92" value="" style="endArrow=none;html=1;rounded=0;exitX=0.5;exitY=1;exitDx=0;exitDy=0;" parent="1" source="BswMOae0kCLnzjpSVGE6-90" edge="1">
          <mxGeometry width="50" height="50" relative="1" as="geometry">
            <mxPoint x="2080" y="280" as="sourcePoint" />
            <mxPoint x="1819.9999999999995" y="60" as="targetPoint" />
          </mxGeometry>
        </mxCell>
        <mxCell id="BswMOae0kCLnzjpSVGE6-93" value="330" style="text;html=1;strokeColor=none;fillColor=none;align=center;verticalAlign=middle;whiteSpace=wrap;rounded=0;" parent="1" vertex="1">
          <mxGeometry x="1790" y="60" width="30" height="30" as="geometry" />
        </mxCell>
        <mxCell id="BswMOae0kCLnzjpSVGE6-94" value="330" style="text;html=1;strokeColor=none;fillColor=none;align=center;verticalAlign=middle;whiteSpace=wrap;rounded=0;" parent="1" vertex="1">
          <mxGeometry x="1820" y="61" width="30" height="30" as="geometry" />
        </mxCell>
        <mxCell id="BswMOae0kCLnzjpSVGE6-95" value="" style="endArrow=classic;html=1;rounded=0;exitX=0.5;exitY=0;exitDx=0;exitDy=0;fillColor=#f8cecc;strokeColor=#b85450;" parent="1" source="BswMOae0kCLnzjpSVGE6-82" edge="1">
          <mxGeometry width="50" height="50" relative="1" as="geometry">
            <mxPoint x="1570" y="371" as="sourcePoint" />
            <mxPoint x="1820" y="100" as="targetPoint" />
          </mxGeometry>
        </mxCell>
        <mxCell id="BswMOae0kCLnzjpSVGE6-96" value="O" style="text;html=1;strokeColor=none;fillColor=none;align=center;verticalAlign=middle;whiteSpace=wrap;rounded=0;" parent="1" vertex="1">
          <mxGeometry x="1754" y="200" width="60" height="30" as="geometry" />
        </mxCell>
        <mxCell id="BswMOae0kCLnzjpSVGE6-97" value="" style="endArrow=classic;html=1;rounded=0;exitX=0.773;exitY=0.016;exitDx=0;exitDy=0;exitPerimeter=0;entryX=0;entryY=0.5;entryDx=0;entryDy=0;" parent="1" source="BswMOae0kCLnzjpSVGE6-1" target="BswMOae0kCLnzjpSVGE6-90" edge="1">
          <mxGeometry width="50" height="50" relative="1" as="geometry">
            <mxPoint x="870" y="200" as="sourcePoint" />
            <mxPoint x="1665.9999999999995" y="-240" as="targetPoint" />
          </mxGeometry>
        </mxCell>
        <mxCell id="BswMOae0kCLnzjpSVGE6-98" value="F" style="text;html=1;strokeColor=none;fillColor=none;align=center;verticalAlign=middle;whiteSpace=wrap;rounded=0;" parent="1" vertex="1">
          <mxGeometry x="1090" y="-15" width="60" height="30" as="geometry" />
        </mxCell>
        <mxCell id="BswMOae0kCLnzjpSVGE6-99" value="100" style="text;html=1;strokeColor=none;fillColor=none;align=center;verticalAlign=middle;whiteSpace=wrap;rounded=0;" parent="1" vertex="1">
          <mxGeometry x="1090" y="15" width="60" height="30" as="geometry" />
        </mxCell>
        <mxCell id="BswMOae0kCLnzjpSVGE6-100" value="" style="ellipse;whiteSpace=wrap;html=1;aspect=fixed;" parent="1" vertex="1">
          <mxGeometry x="2040" y="-35" width="80" height="80" as="geometry" />
        </mxCell>
        <mxCell id="BswMOae0kCLnzjpSVGE6-101" value="" style="endArrow=none;html=1;rounded=0;entryX=0;entryY=0.5;entryDx=0;entryDy=0;exitX=1;exitY=0.5;exitDx=0;exitDy=0;" parent="1" source="BswMOae0kCLnzjpSVGE6-100" target="BswMOae0kCLnzjpSVGE6-100" edge="1">
          <mxGeometry width="50" height="50" relative="1" as="geometry">
            <mxPoint x="2340" y="225" as="sourcePoint" />
            <mxPoint x="2390" y="175" as="targetPoint" />
          </mxGeometry>
        </mxCell>
        <mxCell id="BswMOae0kCLnzjpSVGE6-102" value="" style="endArrow=none;html=1;rounded=0;exitX=0.5;exitY=1;exitDx=0;exitDy=0;" parent="1" source="BswMOae0kCLnzjpSVGE6-100" edge="1">
          <mxGeometry width="50" height="50" relative="1" as="geometry">
            <mxPoint x="2340" y="225" as="sourcePoint" />
            <mxPoint x="2079.9999999999995" y="5" as="targetPoint" />
          </mxGeometry>
        </mxCell>
        <mxCell id="BswMOae0kCLnzjpSVGE6-103" value="345" style="text;html=1;strokeColor=none;fillColor=none;align=center;verticalAlign=middle;whiteSpace=wrap;rounded=0;" parent="1" vertex="1">
          <mxGeometry x="2050" y="5" width="30" height="30" as="geometry" />
        </mxCell>
        <mxCell id="BswMOae0kCLnzjpSVGE6-104" value="345" style="text;html=1;strokeColor=none;fillColor=none;align=center;verticalAlign=middle;whiteSpace=wrap;rounded=0;" parent="1" vertex="1">
          <mxGeometry x="2080" y="6" width="30" height="30" as="geometry" />
        </mxCell>
        <mxCell id="BswMOae0kCLnzjpSVGE6-105" value="" style="endArrow=classic;html=1;rounded=0;entryX=0;entryY=0.5;entryDx=0;entryDy=0;exitX=1.014;exitY=0.301;exitDx=0;exitDy=0;exitPerimeter=0;fillColor=#f8cecc;strokeColor=#b85450;" parent="1" source="BswMOae0kCLnzjpSVGE6-90" target="BswMOae0kCLnzjpSVGE6-100" edge="1">
          <mxGeometry width="50" height="50" relative="1" as="geometry">
            <mxPoint x="1790" y="-70" as="sourcePoint" />
            <mxPoint x="1840" y="-120" as="targetPoint" />
          </mxGeometry>
        </mxCell>
        <mxCell id="BswMOae0kCLnzjpSVGE6-106" value="P" style="text;html=1;strokeColor=none;fillColor=none;align=center;verticalAlign=middle;whiteSpace=wrap;rounded=0;" parent="1" vertex="1">
          <mxGeometry x="1910" width="60" height="30" as="geometry" />
        </mxCell>
        <mxCell id="BswMOae0kCLnzjpSVGE6-107" value="15" style="text;html=1;strokeColor=none;fillColor=none;align=center;verticalAlign=middle;whiteSpace=wrap;rounded=0;" parent="1" vertex="1">
          <mxGeometry x="1910" y="20" width="60" height="30" as="geometry" />
        </mxCell>
        <mxCell id="BswMOae0kCLnzjpSVGE6-108" value="" style="ellipse;whiteSpace=wrap;html=1;aspect=fixed;" parent="1" vertex="1">
          <mxGeometry x="2300" y="-75" width="80" height="80" as="geometry" />
        </mxCell>
        <mxCell id="BswMOae0kCLnzjpSVGE6-109" value="" style="endArrow=none;html=1;rounded=0;entryX=0;entryY=0.5;entryDx=0;entryDy=0;exitX=1;exitY=0.5;exitDx=0;exitDy=0;" parent="1" source="BswMOae0kCLnzjpSVGE6-108" target="BswMOae0kCLnzjpSVGE6-108" edge="1">
          <mxGeometry width="50" height="50" relative="1" as="geometry">
            <mxPoint x="2600" y="185" as="sourcePoint" />
            <mxPoint x="2650" y="135" as="targetPoint" />
          </mxGeometry>
        </mxCell>
        <mxCell id="BswMOae0kCLnzjpSVGE6-110" value="" style="endArrow=none;html=1;rounded=0;exitX=0.5;exitY=1;exitDx=0;exitDy=0;" parent="1" source="BswMOae0kCLnzjpSVGE6-108" edge="1">
          <mxGeometry width="50" height="50" relative="1" as="geometry">
            <mxPoint x="2600" y="185" as="sourcePoint" />
            <mxPoint x="2340" y="-35" as="targetPoint" />
          </mxGeometry>
        </mxCell>
        <mxCell id="BswMOae0kCLnzjpSVGE6-111" value="375" style="text;html=1;strokeColor=none;fillColor=none;align=center;verticalAlign=middle;whiteSpace=wrap;rounded=0;" parent="1" vertex="1">
          <mxGeometry x="2310" y="-35" width="30" height="30" as="geometry" />
        </mxCell>
        <mxCell id="BswMOae0kCLnzjpSVGE6-112" value="375" style="text;html=1;strokeColor=none;fillColor=none;align=center;verticalAlign=middle;whiteSpace=wrap;rounded=0;" parent="1" vertex="1">
          <mxGeometry x="2340" y="-34" width="30" height="30" as="geometry" />
        </mxCell>
        <mxCell id="BswMOae0kCLnzjpSVGE6-113" value="" style="endArrow=classic;html=1;rounded=0;entryX=0;entryY=0.5;entryDx=0;entryDy=0;exitX=1.014;exitY=0.301;exitDx=0;exitDy=0;exitPerimeter=0;fillColor=#f8cecc;strokeColor=#b85450;" parent="1" edge="1">
          <mxGeometry width="50" height="50" relative="1" as="geometry">
            <mxPoint x="2119.9999999999995" y="4.079999999999927" as="sourcePoint" />
            <mxPoint x="2298.88" y="-35" as="targetPoint" />
          </mxGeometry>
        </mxCell>
        <mxCell id="BswMOae0kCLnzjpSVGE6-114" value="Q" style="text;html=1;strokeColor=none;fillColor=none;align=center;verticalAlign=middle;whiteSpace=wrap;rounded=0;" parent="1" vertex="1">
          <mxGeometry x="2168.88" y="-40" width="60" height="30" as="geometry" />
        </mxCell>
        <mxCell id="BswMOae0kCLnzjpSVGE6-115" value="30" style="text;html=1;strokeColor=none;fillColor=none;align=center;verticalAlign=middle;whiteSpace=wrap;rounded=0;" parent="1" vertex="1">
          <mxGeometry x="2168.88" y="-20" width="60" height="30" as="geometry" />
        </mxCell>
        <mxCell id="xrhJ5mTqvPA9smcYI1-y-1" value="20" style="text;html=1;strokeColor=none;fillColor=none;align=center;verticalAlign=middle;whiteSpace=wrap;rounded=0;" vertex="1" parent="1">
          <mxGeometry x="1615" y="362" width="60" height="30" as="geometry" />
        </mxCell>
      </root>
    </mxGraphModel>
  </diagram>
</mxfile>
